<?xml version="1.0" encoding="iso-8859-1"?>
<!-- Uploaded to: SVG Repo, www.svgrepo.com, Generator: SVG Repo Mixer Tools -->
<svg height="800px" width="800px" version="1.1" id="Layer_1" xmlns="http://www.w3.org/2000/svg" xmlns:xlink="http://www.w3.org/1999/xlink" 
	 viewBox="0 0 512 512" xml:space="preserve">
<path style="fill:#E6BD67;" d="M300.818,281.803c-10.749,0-19.462-8.713-19.462-19.462v-63.869
	c0-47.708-38.812-86.521-86.522-86.521c-47.708,0-86.522,38.812-86.522,86.521v63.869c0,10.749-8.713,19.462-19.462,19.462
	s-19.462-8.713-19.462-19.462v-63.869c0-69.171,56.275-125.444,125.446-125.444S320.28,129.302,320.28,198.472v63.869
	C320.28,273.09,311.566,281.803,300.818,281.803z"/>
<path style="fill:#FFA6BB;" d="M302.115,190.182H120.917C54.136,190.182,0,244.318,0,311.099v127.873h423.032V311.099
	C423.032,244.318,368.895,190.182,302.115,190.182z"/>
<path style="fill:#FF8081;" d="M391.083,190.182H209.885c-66.781,0-120.917,54.136-120.917,120.917v127.873H512V311.099
	C512,244.318,457.864,190.182,391.083,190.182z"/>
<path style="opacity:0.1;enable-background:new    ;" d="M391.083,190.182h-43.372c66.781,0,120.917,54.136,120.917,120.917v127.873
	H512V311.099C512,244.318,457.864,190.182,391.083,190.182z"/>
<path style="fill:#FF8081;" d="M52.825,438.972V311.099c0-62.074,50.502-112.576,112.576-112.576c4.606,0,8.341-3.734,8.341-8.341
	l0,0h-52.825c-0.41,0-0.817,0.011-1.226,0.016c-48.779,18.504-83.548,65.715-83.548,120.901v127.873L52.825,438.972L52.825,438.972z
	"/>
<g>
	<path style="fill:#FFD782;" d="M313.588,237.416H287.38c-13.767,0-24.926,11.16-24.926,24.926l0,0
		c0,13.767,11.16,24.926,24.926,24.926h26.208c13.767,0,24.926-11.16,24.926-24.926l0,0
		C338.515,248.576,327.355,237.416,313.588,237.416z"/>
	<path style="fill:#FFD782;" d="M406.468,281.803c-10.749,0-19.462-8.713-19.462-19.462v-63.869
		c0-47.708-38.812-86.521-86.522-86.521c-47.708,0-86.522,38.812-86.522,86.521v63.869c0,10.749-8.713,19.462-19.462,19.462
		c-10.748,0-19.462-8.713-19.462-19.462v-63.869c0-69.171,56.275-125.444,125.445-125.444S425.93,129.302,425.93,198.472v63.869
		C425.93,273.09,417.216,281.803,406.468,281.803z"/>
</g>
</svg>