<?xml version="1.0" encoding="iso-8859-1"?>
<!-- Uploaded to: SVG Repo, www.svgrepo.com, Generator: SVG Repo Mixer Tools -->
<svg height="800px" width="800px" version="1.1" id="Layer_1" xmlns="http://www.w3.org/2000/svg" xmlns:xlink="http://www.w3.org/1999/xlink" 
	 viewBox="0 0 512 512" xml:space="preserve">
<g transform="translate(1 1)">
	<g>
		<path style="fill:#FFE100;" d="M287.427,222.573c-1.707,0-3.413-0.853-5.12-1.707c-17.067-11.093-39.253-11.947-56.32,0
			c-4.267,2.56-9.387,1.707-11.947-2.56c-2.56-4.267-1.707-9.387,2.56-11.947c23.04-15.36,52.907-14.507,75.093,0.853
			c4.267,2.56,5.12,7.68,2.56,11.947C293.4,220.867,290.84,222.573,287.427,222.573z"/>
		<path style="fill:#FFE100;" d="M374.467,178.2H135.533c-5.12,0-8.533-3.413-8.533-8.533c0-5.12,3.413-8.533,8.533-8.533h238.933
			c5.12,0,8.533,3.413,8.533,8.533C383,174.787,379.587,178.2,374.467,178.2z"/>
		<path style="fill:#FFE100;" d="M24.6,263.533H7.533C2.413,263.533-1,260.12-1,255s3.413-8.533,8.533-8.533H24.6
			c5.12,0,8.533,3.413,8.533,8.533S29.72,263.533,24.6,263.533z"/>
		<path style="fill:#FFE100;" d="M502.467,263.533H485.4c-5.12,0-8.533-3.413-8.533-8.533s3.413-8.533,8.533-8.533h17.067
			c5.12,0,8.533,3.413,8.533,8.533S507.587,263.533,502.467,263.533z"/>
		<path style="fill:#FFE100;" d="M485.4,267.8v-28.16c0-43.52-34.987-78.507-78.507-78.507H357.4
			c-72.533,0-104.107,91.307-46.933,136.533L354.84,331.8C407.747,373.613,485.4,335.213,485.4,267.8"/>
	</g>
	<path style="fill:#FFA800;" d="M408.6,161.133H383c43.52,0,78.507,34.987,78.507,78.507v28.16c0,43.52-31.573,74.24-68.267,80.213
		c46.08,7.68,93.867-27.307,93.867-80.213v-28.16C487.107,196.12,452.12,161.133,408.6,161.133"/>
	<path style="fill:#FFE100;" d="M24.6,267.8v-28.16c0-43.52,34.987-78.507,78.507-78.507h50.347
		c72.533,0,104.107,91.307,46.933,136.533L156.013,331.8C102.253,373.613,24.6,335.213,24.6,267.8"/>
	<path style="fill:#FFFFFF;" d="M103.107,161.133h25.6c-43.52,0-78.507,34.987-78.507,78.507v28.16
		c0,43.52,31.573,74.24,68.267,80.213C72.387,355.693,24.6,320.707,24.6,267.8v-28.16C24.6,196.12,59.587,161.133,103.107,161.133"
		/>
	<path d="M403.48,357.4L403.48,357.4c-19.627,0-38.4-6.827-54.613-18.773l-44.373-34.133c-29.013-22.187-40.107-59.733-28.16-94.72
		c12.8-34.987,44.373-57.173,81.067-57.173h50.347c46.933,0,86.187,39.253,86.187,87.04v28.16c0,24.747-10.24,47.787-27.307,64.853
		C449.56,348.867,426.52,357.4,403.48,357.4z M357.4,169.667c-35.84,0-56.32,23.893-64,46.08
		c-7.68,22.187-5.973,53.76,22.187,75.093l44.373,34.133c12.8,10.24,28.16,15.36,44.373,15.36l0,0
		c18.773,0,36.693-7.68,50.347-20.48c14.507-13.653,22.187-32.427,22.187-52.907V239.64c0-38.4-31.573-69.973-69.973-69.973H357.4z"
		/>
	<path d="M451.267,248.173c-5.12,0-8.533-3.413-8.533-8.533c0-19.627-16.213-35.84-35.84-35.84c-5.12,0-8.533-3.413-8.533-8.533
		s3.413-8.533,8.533-8.533c29.013,0,52.907,23.893,52.907,52.907C459.8,243.907,456.387,248.173,451.267,248.173z"/>
	<path d="M106.52,357.4c-50.347,0-90.453-40.107-90.453-89.6v-28.16c0-47.787,39.253-87.04,87.04-87.04h50.347
		c36.693,0,68.267,22.187,80.213,57.173c11.947,34.987,0.853,71.68-28.16,94.72l-44.373,34.133
		C144.92,351.427,126.147,357.4,106.52,357.4z M103.107,169.667c-38.4,0-69.973,31.573-69.973,69.973v28.16
		c0,45.227,37.547,72.533,73.387,72.533c16.213,0,31.573-5.12,44.373-15.36l44.373-34.133c28.16-22.187,29.867-52.907,22.187-75.093
		c-7.68-22.187-29.013-46.08-64-46.08H103.107z"/>
	<path d="M287.427,214.04c-1.707,0-3.413-0.853-5.12-1.707c-17.067-11.093-39.253-11.947-56.32,0
		c-4.267,2.56-9.387,1.707-11.947-2.56c-2.56-4.267-1.707-9.387,2.56-11.947c23.04-15.36,52.907-14.507,75.093,0.853
		c4.267,2.56,5.12,7.68,2.56,11.947C293.4,212.333,290.84,214.04,287.427,214.04z"/>
	<path d="M374.467,169.667H135.533c-5.12,0-8.533-3.413-8.533-8.533c0-5.12,3.413-8.533,8.533-8.533h238.933
		c5.12,0,8.533,3.413,8.533,8.533C383,166.253,379.587,169.667,374.467,169.667z"/>
	<path d="M24.6,255H7.533C2.413,255-1,251.587-1,246.467c0-5.12,3.413-8.533,8.533-8.533H24.6c5.12,0,8.533,3.413,8.533,8.533
		C33.133,251.587,29.72,255,24.6,255z"/>
	<path d="M502.467,255H485.4c-5.12,0-8.533-3.413-8.533-8.533c0-5.12,3.413-8.533,8.533-8.533h17.067
		c5.12,0,8.533,3.413,8.533,8.533C511,251.587,507.587,255,502.467,255z"/>
	<path d="M84.333,212.333H67.267c-5.12,0-8.533-3.413-8.533-8.533c0-5.12,3.413-8.533,8.533-8.533h17.067
		c5.12,0,8.533,3.413,8.533,8.533C92.867,208.92,89.453,212.333,84.333,212.333z"/>
</g>
</svg>